<?xml version="1.0" encoding="UTF-8"?><svg id="Layer_1" xmlns="http://www.w3.org/2000/svg" viewBox="0 0 920.45 193.48"><defs><style>.cls-1{fill:#1fa9e1;}.cls-2{fill:#c75aa2;}</style></defs><g><path class="cls-2" d="M54.62,191.96l-4.99-13.55H21.19l-4.89,13.55H0L27.92,120.63h14.57l28.84,71.33h-16.71Zm-19.26-52.48l-9.27,25.47h18.65l-9.38-25.47Z"/><path class="cls-2" d="M95.89,177.59h27.31v14.37h-42.8V120.63h15.49v56.96Z"/><path class="cls-2" d="M133.59,191.96V120.63h15.49v71.33h-15.49Z"/><path class="cls-2" d="M196.66,154.66h38.01c-.07,11.28-3.5,20.57-10.29,27.87-6.79,7.3-15.52,10.95-26.19,10.95s-19.31-3.52-26.34-10.55c-7.03-7.03-10.55-15.88-10.55-26.54s3.46-19.63,10.39-26.7c6.93-7.06,15.66-10.6,26.19-10.6,8.9,0,16.68,2.53,23.33,7.59,6.66,5.06,10.8,11.6,12.43,19.62h-15.9c-1.02-2.58-2.48-4.81-4.38-6.67-1.9-1.87-4.16-3.31-6.78-4.33-2.62-1.02-5.42-1.53-8.41-1.53-6.32,0-11.45,2.11-15.39,6.32-3.94,4.21-5.91,9.65-5.91,16.3,0,4.35,.88,8.22,2.65,11.62,1.77,3.4,4.26,6.05,7.49,7.95,3.23,1.9,6.95,2.85,11.16,2.85,3.06,0,5.94-.51,8.66-1.53,2.72-1.02,5.04-2.46,6.98-4.33,1.94-1.87,3.34-3.99,4.23-6.37h-21.4v-11.92Z"/><path class="cls-2" d="M291.83,120.63h15.08v71.33h-12.84l-32.3-44.53v44.53h-15.18V120.63h13.96l31.28,43.51v-43.51Z"/></g><g><path class="cls-2" d="M565.95,193.48c-6.86,0-13.11-1.61-18.75-4.84-5.64-3.23-10.05-7.68-13.25-13.35-3.19-5.67-4.79-11.97-4.79-18.9,0-10.6,3.52-19.46,10.55-26.6,7.03-7.13,15.78-10.7,26.24-10.7,8.7,0,16.2,2.62,22.52,7.85,6.32,5.23,10.33,12.09,12.02,20.58h-15.49c-.95-2.79-2.34-5.21-4.18-7.29-1.83-2.07-4.02-3.67-6.57-4.79-2.55-1.12-5.32-1.68-8.3-1.68-6.05,0-11.09,2.16-15.13,6.47-4.04,4.32-6.06,9.68-6.06,16.1s2.02,11.77,6.06,16.05c4.04,4.28,9.08,6.42,15.13,6.42,4.69,0,8.73-1.33,12.13-3.97,3.4-2.65,5.74-6.25,7.03-10.8h15.59c-1.63,8.83-5.62,15.95-11.97,21.35-6.35,5.4-13.94,8.1-22.77,8.1Z"/><path class="cls-2" d="M656.84,191.96l-4.99-13.55h-28.43l-4.89,13.55h-16.3l27.92-71.33h14.57l28.84,71.33h-16.71Zm-19.26-52.48l-9.27,25.47h18.65l-9.37-25.47Z"/><path class="cls-2" d="M721.85,191.96l-13.86-24.35h-9.88v24.35h-15.49V120.63h28.84c4.69,0,8.93,1,12.74,3.01,3.8,2,6.78,4.81,8.92,8.41,2.14,3.6,3.21,7.68,3.21,12.23s-1.16,8.66-3.46,12.33c-2.31,3.67-5.47,6.46-9.48,8.36l15.79,27h-17.32Zm-23.74-57.06v18.44h12.33c3.12,0,5.62-.85,7.49-2.55,1.87-1.7,2.8-3.91,2.8-6.62,0-1.83-.41-3.45-1.22-4.84-.82-1.39-2-2.48-3.57-3.26-1.56-.78-3.4-1.17-5.5-1.17h-12.33Z"/><path class="cls-2" d="M765.46,177.59h28.43v14.37h-43.92V120.63h42.8v14.27h-27.31v14.06h24.66v13.96h-24.66v14.67Z"/><path class="cls-2" d="M822.42,177.59h28.43v14.37h-43.92V120.63h42.8v14.27h-27.31v14.06h24.66v13.96h-24.66v14.67Z"/><path class="cls-2" d="M903.12,191.96l-13.86-24.35h-9.88v24.35h-15.49V120.63h28.84c4.69,0,8.93,1,12.74,3.01,3.8,2,6.78,4.81,8.92,8.41,2.14,3.6,3.21,7.68,3.21,12.23s-1.16,8.66-3.46,12.33c-2.31,3.67-5.47,6.46-9.48,8.36l15.79,27h-17.32Zm-23.74-57.06v18.44h12.33c3.12,0,5.62-.85,7.49-2.55,1.87-1.7,2.8-3.91,2.8-6.62,0-1.83-.41-3.45-1.22-4.84-.82-1.39-2-2.48-3.57-3.26-1.56-.78-3.4-1.17-5.5-1.17h-12.33Z"/></g><g><rect class="cls-1" x="346.79" y="141.43" width="18.97" height="49.94"/><rect class="cls-1" x="376.02" y="137.35" width="18.97" height="54.03"/><path class="cls-1" d="M512.27,104.8l-30.42,51.57v35h-19.29v-35.12l-30.18-51.45h19.91l20.04,34.63,20.04-34.63h19.91Z"/><rect class="cls-1" x="361.14" y="141.43" width="15.57" height="14.88"/><rect class="cls-1" x="405.25" y="137.35" width="18.96" height="54.03"/><rect class="cls-1" x="376.02" y="121.34" width="48.2" height="17.01"/><polygon class="cls-1" points="492.22 105.07 506.82 80.83 529.29 76.16 512.01 105.26 492.22 105.07"/><polygon class="cls-1" points="340.36 86.22 403.15 42.41 423.79 72.55 493.83 23.72 473.46 20.09 478.07 0 532.62 9.07 522.71 64.18 502.48 60.13 504.99 41.58 419.14 101.66 398.31 72.46 352.78 103.52 340.36 86.22"/></g></svg>