<svg width="179" height="178" viewBox="0 0 179 178" fill="none" xmlns="http://www.w3.org/2000/svg">
<path d="M173.4 87.9C172 86.6 171.9 84.5 173.2 83.1C175.1 81 176.1 78.1 175.6 75.1C175.1 72.1 173.2 69.8 170.8 68.5C169.1 67.6 168.5 65.6 169.5 63.9C170.9 61.4 171.2 58.4 170 55.6C168.8 52.8 166.5 50.9 163.8 50.2C162 49.7 160.9 47.9 161.4 46C162.2 43.3 161.8 40.2 159.9 37.8C158.1 35.4 155.4 34.1 152.6 34C150.7 34 149.2 32.4 149.3 30.5C149.5 27.7 148.3 24.8 146 22.8C143.7 20.9 140.7 20.2 138 20.8C136.1 21.2 134.4 20 134 18.1C133.5 15.3 131.7 12.8 129 11.4C126.3 10.1 123.3 10.1 120.8 11.3C119.1 12.1 117.1 11.4 116.3 9.59999C115.2 6.99999 112.9 5 109.9 4.2C107 3.5 104.1 4.3 101.9 6C100.4 7.2 98.3 6.9 97.1 5.4C95.4 3.1 92.7 1.7 89.6 1.7C86.7 1.7 84.2 3 82.4 5.1C81.3 6.5 79.3 6.7 77.9 5.6C75.8 3.9 72.9 3.2 70.1 3.8C67.2 4.5 64.9 6.4 63.7 9C62.9 10.7 60.9 11.4 59.2 10.6C56.7 9.29999 53.6 9.19999 50.9 10.6C48.2 11.9 46.4 14.4 45.9 17.1C45.5 19 43.7 20.1 41.9 19.7C39.1 19 36.1 19.6 33.8 21.6C31.5 23.5 30.3 26.3 30.4 29.1C30.5 31 29 32.5 27.1 32.5C24.3 32.5 21.5 33.8 19.6 36.2C17.8 38.6 17.3 41.6 18 44.3C18.5 46.1 17.4 48 15.6 48.4C12.8 49 10.4 50.9 9.19999 53.7C7.99999 56.4 8.19999 59.5 9.49999 61.9C10.4 63.6 9.79999 65.6 8.09999 66.5C5.59999 67.8 3.59999 70.2 3.09999 73.2C2.59999 76.2 3.49999 79 5.29999 81.1C6.59999 82.5 6.39999 84.7 4.99999 85.9C2.79999 87.7 1.49999 90.5 1.69999 93.5C1.89999 96.5 3.39999 99.1 5.69999 100.7C7.29999 101.8 7.59999 103.9 6.49999 105.4C4.79999 107.7 4.19999 110.7 4.99999 113.6C5.79999 116.5 7.99999 118.6 10.5 119.7C12.3 120.4 13.1 122.4 12.4 124.1C11.3 126.7 11.3 129.8 12.9 132.4C14.4 135 16.9 136.6 19.7 137C21.6 137.3 22.9 139 22.5 140.9C22 143.7 22.8 146.7 24.9 148.9C26.9 151.1 29.8 152.1 32.6 151.8C34.5 151.6 36.1 153 36.2 154.9C36.4 157.7 37.8 160.4 40.4 162.1C42.9 163.8 45.9 164.1 48.5 163.2C50.3 162.6 52.2 163.6 52.8 165.4C53.6 168.1 55.6 170.4 58.5 171.5C61.3 172.5 64.3 172.1 66.7 170.7C68.3 169.7 70.4 170.2 71.3 171.8C72.7 174.3 75.2 176 78.3 176.4C81.3 176.8 84.1 175.7 86.1 173.7C87.4 172.4 89.6 172.4 90.9 173.7C92.8 175.8 95.7 176.9 98.7 176.6C101.7 176.3 104.2 174.6 105.6 172.2C106.6 170.6 108.7 170.1 110.3 171.1C112.7 172.7 115.7 173.1 118.6 172.1C121.4 171.1 123.5 168.8 124.3 166.2C124.9 164.4 126.8 163.4 128.6 164.1C131.3 165.1 134.3 164.8 136.9 163.1C139.4 161.5 140.9 158.8 141.1 156C141.3 154.1 142.9 152.7 144.8 152.9C147.6 153.2 150.5 152.3 152.6 150.1C154.7 147.9 155.5 145 155.1 142.3C154.8 140.4 156.1 138.7 158 138.5C160.8 138.2 163.4 136.6 165 133.9C166.5 131.3 166.6 128.3 165.6 125.7C164.9 123.9 165.7 122 167.5 121.3C170.2 120.3 172.3 118.2 173.2 115.2C174.1 112.3 173.5 109.4 171.9 107.1C170.8 105.6 171.2 103.4 172.8 102.4C175.2 100.8 176.8 98.2 177 95.2C176.7 92.5 175.5 89.7 173.4 87.9Z" fill="#AD2DB5" stroke="#671670" stroke-width="2" stroke-miterlimit="10"/>
<path d="M162.4 88.1C161.2 87 161.1 85.1 162.2 83.9C163.9 82.1 164.7 79.6 164.3 76.9C163.9 74.3 162.2 72.3 160.1 71.1C158.6 70.3 158.1 68.5 158.9 67.1C160.1 65 160.4 62.3 159.3 59.9C158.3 57.5 156.2 55.9 153.9 55.2C152.3 54.8 151.4 53.2 151.8 51.6C152.5 49.2 152.1 46.6 150.5 44.5C148.9 42.4 146.6 41.3 144.2 41.2C142.5 41.2 141.3 39.8 141.4 38.2C141.5 35.7 140.5 33.2 138.5 31.5C136.5 29.8 133.9 29.3 131.6 29.8C130 30.1 128.4 29.1 128.1 27.5C127.7 25.1 126.1 22.9 123.8 21.7C121.5 20.5 118.8 20.6 116.7 21.6C115.2 22.3 113.5 21.7 112.8 20.2C111.8 17.9 109.8 16.2 107.2 15.5C104.7 14.9 102.1 15.6 100.2 17.1C98.9 18.1 97.1 17.9 96.1 16.6C94.6 14.6 92.3 13.4 89.6 13.4C87.1 13.4 84.9 14.5 83.4 16.3C82.4 17.5 80.7 17.7 79.5 16.7C77.6 15.2 75.2 14.6 72.7 15.2C70 15.8 68 17.5 67 19.7C66.3 21.2 64.5 21.8 63.1 21.1C60.9 20 58.2 19.9 55.8 21.1C53.5 22.3 51.9 24.4 51.4 26.8C51.1 28.4 49.5 29.4 47.9 29C45.5 28.4 42.9 28.9 40.8 30.6C38.8 32.3 37.8 34.7 37.9 37.1C38 38.8 36.7 40.1 35 40.1C32.5 40.1 30.1 41.2 28.5 43.3C26.9 45.4 26.5 48 27.1 50.3C27.5 51.9 26.6 53.5 25 53.9C22.6 54.5 20.5 56.1 19.4 58.5C18.3 60.9 18.5 63.5 19.7 65.6C20.5 67.1 19.9 68.8 18.5 69.6C16.3 70.7 14.6 72.8 14.1 75.4C13.6 78 14.4 80.5 16 82.3C17.1 83.5 17 85.4 15.7 86.5C13.8 88.1 12.7 90.5 12.8 93.1C12.9 95.7 14.3 98 16.3 99.3C17.7 100.2 18 102.1 17 103.4C15.5 105.4 15 108 15.7 110.5C16.4 113 18.3 114.9 20.5 115.8C22 116.4 22.8 118.1 22.1 119.6C21.1 121.9 21.2 124.5 22.5 126.8C23.8 129.1 26 130.5 28.4 130.8C30 131 31.1 132.5 30.9 134.2C30.5 136.6 31.1 139.2 33 141.2C34.8 143.1 37.3 144 39.7 143.7C41.3 143.5 42.8 144.8 42.9 146.4C43 148.9 44.3 151.2 46.5 152.7C48.7 154.1 51.3 154.4 53.6 153.6C55.2 153.1 56.8 153.9 57.3 155.5C58 157.9 59.8 159.9 62.3 160.8C64.7 161.7 67.4 161.4 69.4 160.1C70.8 159.2 72.6 159.7 73.4 161.1C74.6 163.2 76.8 164.8 79.5 165.1C82.1 165.4 84.5 164.5 86.2 162.8C87.4 161.6 89.2 161.6 90.4 162.8C92.1 164.6 94.6 165.6 97.2 165.3C99.8 165 102 163.5 103.2 161.5C104.1 160.1 105.9 159.7 107.3 160.6C109.4 162 112 162.4 114.5 161.5C117 160.6 118.7 158.7 119.5 156.4C120 154.8 121.7 154 123.2 154.6C125.5 155.4 128.2 155.2 130.4 153.8C132.6 152.4 133.9 150.1 134.1 147.7C134.2 146.1 135.7 144.9 137.3 145C139.7 145.3 142.3 144.5 144.1 142.5C145.9 140.6 146.6 138.1 146.2 135.7C146 134.1 147.1 132.6 148.7 132.4C151.1 132.1 153.4 130.7 154.8 128.4C156.1 126.1 156.2 123.5 155.3 121.3C154.7 119.8 155.4 118.1 157 117.5C159.3 116.7 161.2 114.8 162 112.2C162.8 109.7 162.2 107.1 160.8 105.2C159.8 103.9 160.2 102 161.5 101.1C163.6 99.7 165 97.5 165.1 94.8C165.3 92.1 164.2 89.7 162.4 88.1Z" fill="#95289E"/>
<path d="M146.037 104.519C153.672 73.0677 134.365 41.3823 102.913 33.7477C71.4621 26.113 39.7767 45.4202 32.1421 76.8714C24.5075 108.323 43.8146 140.008 75.2658 147.643C106.717 155.277 138.402 135.97 146.037 104.519Z" fill="#AD2DB5"/>
<path opacity="0.22" d="M155.5 34.6C154.5 34.2 153.5 34.1 152.5 34C150.6 34 149.1 32.4 149.2 30.5C149.4 27.7 148.2 24.8 145.9 22.8C143.6 20.9 140.6 20.2 137.9 20.8C136 21.2 134.3 20 133.9 18.1C133.4 15.3 131.6 12.8 128.9 11.4C126.2 10.1 123.2 10.1 120.7 11.3C119 12.1 117 11.4 116.2 9.59999C115.1 6.99999 112.8 5 109.8 4.2C106.9 3.5 104 4.3 101.8 6C100.3 7.2 98.2 6.9 97 5.4C95.3 3.1 92.6 1.7 89.5 1.7C86.6 1.7 84.1001 3 82.3 5.1C81.2001 6.5 79.2001 6.7 77.8 5.6C75.7001 3.9 72.8 3.2 70 3.8C67.1 4.5 64.8 6.4 63.6 9C62.8 10.7 60.8 11.4 59.1 10.6C56.6 9.29999 53.5001 9.19999 50.8001 10.6C48.1001 11.9 46.3 14.4 45.8 17.1C45.4 19 43.6 20.1 41.8 19.7C39 19 36 19.6 33.7001 21.6C31.4001 23.5 30.2 26.3 30.3 29.1C30.4 31 28.9 32.5 27 32.5C24.2001 32.5 21.4 33.8 19.5 36.2C17.7 38.6 17.2 41.6 17.9 44.3C18.4 46.1 17.3 48 15.5 48.4C12.7 49 10.3 50.9 9.10005 53.7C7.90005 56.4 8.10005 59.5 9.40005 61.9C10.3 63.6 9.70005 65.6 8.00005 66.5C5.80005 67.6 4.00005 69.6 3.30005 72.1C20.2 85.9 41.8001 94.2 65.3001 94.2C105.8 94.3 140.6 69.7 155.5 34.6Z" fill="white"/>
<path d="M68.3 54.6L61.1 51.1C60.4 50.8 59.7 50.9 59.1 51.4L58.4 52L57.1 53.1L56.3 53.8C55.8 54.3 55.6 55.1 55.8 55.7L58.6 63.2C59 64.3 60 65.2 61.2 65.5L66.1 66.6L97.6 101.6L99.4 100L100.7 98.9L102.4 97.4L70.9 62.4L70.4 57.4C70.2 56.2 69.4 55.1 68.3 54.6Z" fill="#671670"/>
<path d="M67.9 55L61.4 51.8C60.8 51.5 60.1 51.6 59.6 52L58.9 52.6L57.8 53.6L57 54.3C56.5 54.7 56.4 55.5 56.6 56.1L59.1 62.9C59.5 63.9 60.4 64.7 61.4 64.9L65.8 65.9L94.2 97.5L95.8 96L96.9 95L98.7 93.4L70.3 61.8L69.7 57.4C69.6 56.3 68.8 55.5 67.9 55Z" fill="#671670"/>
<path d="M123.3 109.2L100.9 89.2L89.6 99.4L106.9 123.2C108.5 125.4 110.7 127.2 113.3 128.3L120.2 131.2C121.4 131.7 122.8 131.5 123.7 130.7L128.4 126.5C129.3 125.7 129.6 124.5 129.3 123.4L128.1 117.6C127.5 114.4 125.8 111.4 123.3 109.2Z" fill="#671670"/>
<path d="M102 87.9C102.7 88.7 102.6 89.8 101.9 90.5L90.6 100.7C89.8 101.4 88.7 101.3 88 100.6L87.9 100.4C87.2 99.6 87.3 98.5 88 97.8L99.3 87.6C100.1 86.9 101.2 87 101.9 87.7L102 87.9Z" fill="#671670"/>
<path d="M118.9 123.8C119.5 124.5 119.4 125.5 118.8 126.1C118.1 126.7 117.1 126.6 116.5 126L95.1 102.3C94.5 101.6 94.6 100.6 95.2 100C95.9 99.4 96.9 99.5 97.5 100.1L118.9 123.8Z" fill="#671670"/>
<path d="M124.5 118.7C125.1 119.4 125 120.4 124.4 121C123.7 121.6 122.7 121.5 122.1 120.9L100.7 97.2C100.1 96.5 100.2 95.5 100.8 94.9C101.5 94.3 102.5 94.4 103.1 95L124.5 118.7Z" fill="#671670"/>
<path d="M53.1 108.1L51.6 109.5C49 111.9 48.2 115.3 49.9 117.1L51.8 119.2C53.4 121 56.9 120.4 59.5 118L61 116.6C61.1 116.5 61.2 116.4 61.3 116.3L104.3 72.6L100.1 68.1L53.4 108C53.3 107.9 53.2 108 53.1 108.1ZM55.2 110.1C57.2 108.3 59.6 107.7 60.7 108.9C61.8 110.1 61.1 112.5 59.1 114.3C57.1 116.1 54.7 116.7 53.6 115.5C52.5 114.3 53.2 111.9 55.2 110.1Z" fill="#671670"/>
<path d="M113.2 51.3L104.4 59.5C103.8 60.1 103.5 60.9 103.5 61.8L103.9 66.2C104 67.4 105 68.5 106.2 68.7L110.5 69.4C111.3 69.5 112.2 69.3 112.8 68.7L121.6 60.5C122.9 59.3 125.1 60.2 125.2 62C125.3 66.3 123.6 70.7 120.1 74C113.8 79.9 104.9 79 99.2 72.9C93.5 66.8 93.3 57.9 99.6 52C103.1 48.7 107.6 47.3 111.9 47.8C113.8 47.9 114.6 50.1 113.2 51.3Z" fill="#671670"/>
<path d="M114 52.2L105.2 60.4C104.6 61 104.3 61.8 104.3 62.7L104.7 67.1C104.8 68.3 105.8 69.4 107 69.6L111.3 70.3C112.1 70.4 113 70.2 113.6 69.6L122.4 61.4C123.7 60.2 125.9 61.1 126 62.9C126.1 67.2 124.4 71.6 120.9 74.9C114.6 80.8 105.7 79.9 100 73.8C94.3 67.7 94.1 58.8 100.4 52.9C103.9 49.6 108.4 48.2 112.7 48.7C114.6 48.7 115.3 50.9 114 52.2Z" fill="#671670"/>
<path d="M53.7 108.7L52.2 110.1C49.6 112.5 48.8 115.9 50.5 117.7L52.4 119.8C54 121.6 57.5 121 60.1 118.6L61.6 117.2C61.7 117.1 61.8 117 61.9 116.9L104.9 73.2L100.7 68.7L54 108.4C53.9 108.5 53.8 108.6 53.7 108.7ZM55.8 110.7C57.8 108.9 60.2 108.3 61.3 109.5C62.4 110.7 61.7 113.1 59.7 114.9C57.7 116.7 55.3 117.3 54.2 116.1C53.1 115 53.8 112.5 55.8 110.7Z" fill="#671670"/>
<path d="M68.3 52.6L61.1 49.1C60.4 48.8 59.7 48.9 59.1 49.4L58.4 50L57.1 51.1L56.3 51.8C55.8 52.3 55.6 53.1 55.8 53.7L58.6 61.2C59 62.3 60 63.2 61.2 63.5L66.1 64.6L97.6 99.6L99.4 98L100.7 96.9L102.4 95.4L70.9 60.4L70.4 55.4C70.2 54.2 69.4 53.1 68.3 52.6Z" fill="#DBDBDB"/>
<path d="M67.9 53L61.4 49.8C60.8 49.5 60.1 49.6 59.6 50L58.9 50.6L57.8 51.6L57 52.3C56.5 52.7 56.4 53.5 56.6 54.1L59.1 60.9C59.5 61.9 60.4 62.7 61.4 62.9L65.8 63.9L94.2 95.5L95.8 94L96.9 93L98.7 91.4L70.3 59.8L69.7 55.4C69.6 54.3 68.8 53.5 67.9 53Z" fill="white"/>
<path d="M123.3 107.2L100.9 87.2L89.6 97.4L106.9 121.2C108.5 123.4 110.7 125.2 113.3 126.3L120.2 129.2C121.4 129.7 122.8 129.5 123.7 128.7L128.4 124.5C129.3 123.7 129.6 122.5 129.3 121.4L128.1 115.6C127.5 112.4 125.8 109.4 123.3 107.2Z" fill="#F4F4F4"/>
<path d="M102 85.9C102.7 86.7 102.6 87.8 101.9 88.5L90.6 98.7C89.8 99.4 88.7 99.3 88 98.6L87.9 98.4C87.2 97.6 87.3 96.5 88 95.8L99.3 85.6C100.1 84.9 101.2 85 101.9 85.7L102 85.9Z" fill="#DBDBDB"/>
<path d="M118.9 121.8C119.5 122.5 119.4 123.5 118.8 124.1C118.1 124.7 117.1 124.6 116.5 124L95.1 100.3C94.5 99.6 94.6 98.6 95.2 98C95.9 97.4 96.9 97.5 97.5 98.1L118.9 121.8Z" fill="#DBDBDB"/>
<path d="M124.5 116.7C125.1 117.4 125 118.4 124.4 119C123.7 119.6 122.7 119.5 122.1 118.9L100.7 95.2C100.1 94.5 100.2 93.5 100.8 92.9C101.5 92.3 102.5 92.4 103.1 93L124.5 116.7Z" fill="#DBDBDB"/>
<path d="M53.1 106.1L51.6 107.5C49 109.9 48.2 113.3 49.9 115.1L51.8 117.2C53.4 119 56.9 118.4 59.5 116L61 114.6C61.1 114.5 61.2 114.4 61.3 114.3L104.3 70.6L100.1 66.1L53.4 106C53.3 105.9 53.2 106 53.1 106.1ZM55.2 108.1C57.2 106.3 59.6 105.7 60.7 106.9C61.8 108.1 61.1 110.5 59.1 112.3C57.1 114.1 54.7 114.7 53.6 113.5C52.5 112.3 53.2 109.9 55.2 108.1Z" fill="#DBDBDB"/>
<path d="M113.2 49.3L104.4 57.5C103.8 58.1 103.5 58.9 103.5 59.8L103.9 64.2C104 65.4 105 66.5 106.2 66.7L110.5 67.4C111.3 67.5 112.2 67.3 112.8 66.7L121.6 58.5C122.9 57.3 125.1 58.2 125.2 60C125.3 64.3 123.6 68.7 120.1 72C113.8 77.9 104.9 77 99.2 70.9C93.5 64.8 93.3 55.9 99.6 50C103.1 46.7 107.6 45.3 111.9 45.8C113.8 45.9 114.6 48.1 113.2 49.3Z" fill="#DBDBDB"/>
<path d="M114 50.2L105.2 58.4C104.6 59 104.3 59.8 104.3 60.7L104.7 65.1C104.8 66.3 105.8 67.4 107 67.6L111.3 68.3C112.1 68.4 113 68.2 113.6 67.6L122.4 59.4C123.7 58.2 125.9 59.1 126 60.9C126.1 65.2 124.4 69.6 120.9 72.9C114.6 78.8 105.7 77.9 100 71.8C94.3 65.7 94.1 56.8 100.4 50.9C103.9 47.6 108.4 46.2 112.7 46.7C114.6 46.7 115.3 48.9 114 50.2Z" fill="white"/>
<path d="M53.7 106.7L52.2 108.1C49.6 110.5 48.8 113.9 50.5 115.7L52.4 117.8C54 119.6 57.5 119 60.1 116.6L61.6 115.2C61.7 115.1 61.8 115 61.9 114.9L104.9 71.2L100.7 66.7L54 106.4C53.9 106.5 53.8 106.6 53.7 106.7ZM55.8 108.7C57.8 106.9 60.2 106.3 61.3 107.5C62.4 108.7 61.7 111.1 59.7 112.9C57.7 114.7 55.3 115.3 54.2 114.1C53.1 113 53.8 110.5 55.8 108.7Z" fill="white"/>
</svg>
